<svg xmlns="http://www.w3.org/2000/svg" version="1.1" xmlns:xlink="http://www.w3.org/1999/xlink" xmlns:svgjs="http://svgjs.com/svgjs" width="1920" height="1080" preserveAspectRatio="none" viewBox="0 0 1920 1080"><g mask="url(&quot;#SvgjsMask1073&quot;)" fill="none"><rect width="1920" height="1080" x="0" y="0" fill="#1e3266"></rect><path d="M2080 1080L0 1080 L0 446.63Q-24.5 326.13, 96 301.64Q120.76 230.4, 192 255.16Q257.06 224.22, 288 289.28Q427.87 333.15, 384 473.02Q349.55 342.56, 480 308.11Q526.45 194.56, 640 241.02Q744.81 185.83, 800 290.65Q913.95 308.6, 896 422.55Q893.44 259.99, 1056 257.43Q1096.55 201.98, 1152 242.53Q1214.68 209.21, 1248 271.9Q1391.85 319.75, 1344 463.59Q1320.24 343.82, 1440 320.06Q1499.84 219.9, 1600 279.74Q1667.05 186.79, 1760 253.83Q1866.17 200, 1920 306.18Q2009.86 236.04, 2080 325.9z" fill="#182f5d"></path><path d="M1952 1080L0 1080 L0 623.91Q91.84 555.75, 160 647.59Q221.48 549.07, 320 610.55Q411.68 542.23, 480 633.91Q488.13 546.04, 576 554.17Q610.54 492.71, 672 527.26Q732.3 427.56, 832 487.85Q926.5 422.36, 992 516.86Q1091.95 520.81, 1088 620.76Q1178 614.76, 1184 704.76Q1207.1 631.86, 1280 654.95Q1258.96 473.91, 1440 452.87Q1603.13 456, 1600 619.12Q1702.45 625.57, 1696 728.02Q1677.47 613.49, 1792 594.96Q1814.04 457, 1952 479.05z" fill="#25467d"></path><path d="M2016 1080L0 1080 L0 677.8Q177.26 759.06, 96 936.32Q84.68 765, 256 753.68Q309.92 647.6, 416 701.51Q545.27 670.78, 576 800.05Q611.12 739.17, 672 774.29Q728.46 670.75, 832 727.21Q887.56 622.77, 992 678.33Q1046.84 637.17, 1088 692.02Q1196.25 704.27, 1184 812.52Q1295.36 763.88, 1344 875.24Q1441.21 812.45, 1504 909.67Q1560.82 870.49, 1600 927.31Q1688.94 856.25, 1760 945.19Q1790.16 815.35, 1920 845.51Q1908.83 738.34, 2016 727.16z" fill="#356cb1"></path><path d="M1952 1080L0 1080 L0 996.17Q52.55 888.72, 160 941.27Q195.14 880.41, 256 915.56Q326.02 825.58, 416 895.59Q535.2 854.79, 576 973.98Q625.76 863.75, 736 913.51Q857.13 874.64, 896 995.78Q909.14 912.92, 992 926.07Q1047.87 885.94, 1088 941.81Q1211.13 968.94, 1184 1092.08Q1168.68 980.76, 1280 965.44Q1317.82 843.26, 1440 881.07Q1503.24 848.31, 1536 911.55Q1608.13 887.67, 1632 959.8Q1801.6 969.39, 1792 1138.99Q1763.52 950.51, 1952 922.02z" fill="white"></path></g><defs><mask id="SvgjsMask1073"><rect width="1920" height="1080" fill="#ffffff"></rect></mask></defs></svg>